ISO-10303-21;
HEADER;
/* Generated by software containing ST-Developer
 * from STEP Tools, Inc. (www.steptools.com) 
 */
/* OPTION: using custom renumber hook */
/* OPTION: strings as raw bytes, not using required /X/ escapes */

FILE_DESCRIPTION(
/* description */ ('Unknown'),
/* implementation_level */ '2;1');

FILE_NAME(
/* name */ 'Esercizio 1',
/* time_stamp */ '2026-09-21T11:16:59+02:00',
/* author */ ('Unknown'),
/* organization */ ('Unknown'),
/* preprocessor_version */ 'ST-DEVELOPER v20',
/* originating_system */ 'Solid Edge',
/* authorisation */ 'Unknown');

FILE_SCHEMA (('AUTOMOTIVE_DESIGN {1 0 10303 214 3 1 1}'));
ENDSEC;

DATA;
#10=PROPERTY_DEFINITION_REPRESENTATION(#14,#12);
#11=PROPERTY_DEFINITION_REPRESENTATION(#15,#13);
#12=REPRESENTATION('',(#16),#1083);
#13=REPRESENTATION('',(#17),#1083);
#14=PROPERTY_DEFINITION('pmi validation property','',#1088);
#15=PROPERTY_DEFINITION('pmi validation property','',#1088);
#16=VALUE_REPRESENTATION_ITEM('number of annotations',COUNT_MEASURE(0.));
#17=VALUE_REPRESENTATION_ITEM('number of views',COUNT_MEASURE(0.));
#18=SHAPE_REPRESENTATION_RELATIONSHIP('','',#637,#19);
#19=ADVANCED_BREP_SHAPE_REPRESENTATION('',(#635),#1083);
#20=PLANE('',#651);
#21=PLANE('',#652);
#22=PLANE('',#661);
#23=PLANE('',#663);
#24=PLANE('',#665);
#25=PLANE('',#667);
#26=PLANE('',#683);
#27=PLANE('',#684);
#28=PLANE('',#685);
#29=PLANE('',#686);
#30=PLANE('',#687);
#31=PLANE('',#688);
#32=PLANE('',#689);
#33=PLANE('',#692);
#34=PLANE('',#695);
#35=PLANE('',#698);
#36=PLANE('',#705);
#37=CIRCLE('',#640,35.);
#38=CIRCLE('',#641,35.);
#39=CIRCLE('',#642,35.);
#40=CIRCLE('',#643,35.);
#41=CIRCLE('',#644,35.);
#42=CIRCLE('',#645,35.);
#43=CIRCLE('',#646,35.);
#44=CIRCLE('',#647,35.);
#45=CIRCLE('',#649,25.);
#46=CIRCLE('',#650,25.);
#47=CIRCLE('',#653,9.6);
#48=CIRCLE('',#654,20.);
#49=CIRCLE('',#655,20.);
#50=CIRCLE('',#656,20.);
#51=CIRCLE('',#657,9.6);
#52=CIRCLE('',#658,10.);
#53=CIRCLE('',#659,10.);
#54=CIRCLE('',#660,10.);
#55=CIRCLE('',#662,9.6);
#56=CIRCLE('',#664,8.);
#57=CIRCLE('',#666,9.6);
#58=CIRCLE('',#668,8.);
#59=CIRCLE('',#670,7.);
#60=CIRCLE('',#671,7.);
#61=CIRCLE('',#673,7.);
#62=CIRCLE('',#674,7.);
#63=CIRCLE('',#676,14.);
#64=CIRCLE('',#677,14.);
#65=CIRCLE('',#678,14.);
#66=CIRCLE('',#680,14.);
#67=CIRCLE('',#681,14.);
#68=CIRCLE('',#682,14.);
#69=CIRCLE('',#691,20.);
#70=CIRCLE('',#694,20.);
#71=CIRCLE('',#697,20.);
#72=CIRCLE('',#700,10.);
#73=CIRCLE('',#702,10.);
#74=CIRCLE('',#704,10.);
#75=CIRCLE('',#706,9.6);
#76=CIRCLE('',#707,9.6);
#77=ORIENTED_EDGE('',*,*,#245,.T.);
#78=ORIENTED_EDGE('',*,*,#246,.T.);
#79=ORIENTED_EDGE('',*,*,#247,.T.);
#80=ORIENTED_EDGE('',*,*,#248,.T.);
#81=ORIENTED_EDGE('',*,*,#249,.T.);
#82=ORIENTED_EDGE('',*,*,#250,.T.);
#83=ORIENTED_EDGE('',*,*,#251,.T.);
#84=ORIENTED_EDGE('',*,*,#252,.T.);
#85=ORIENTED_EDGE('',*,*,#253,.T.);
#86=ORIENTED_EDGE('',*,*,#254,.F.);
#87=ORIENTED_EDGE('',*,*,#255,.T.);
#88=ORIENTED_EDGE('',*,*,#256,.T.);
#89=ORIENTED_EDGE('',*,*,#257,.T.);
#90=ORIENTED_EDGE('',*,*,#258,.F.);
#91=ORIENTED_EDGE('',*,*,#259,.T.);
#92=ORIENTED_EDGE('',*,*,#260,.T.);
#93=ORIENTED_EDGE('',*,*,#261,.F.);
#94=ORIENTED_EDGE('',*,*,#262,.T.);
#95=ORIENTED_EDGE('',*,*,#263,.F.);
#96=ORIENTED_EDGE('',*,*,#264,.F.);
#97=ORIENTED_EDGE('',*,*,#265,.F.);
#98=ORIENTED_EDGE('',*,*,#264,.T.);
#99=ORIENTED_EDGE('',*,*,#266,.F.);
#100=ORIENTED_EDGE('',*,*,#248,.F.);
#101=ORIENTED_EDGE('',*,*,#262,.F.);
#102=ORIENTED_EDGE('',*,*,#267,.T.);
#103=ORIENTED_EDGE('',*,*,#258,.T.);
#104=ORIENTED_EDGE('',*,*,#268,.T.);
#105=ORIENTED_EDGE('',*,*,#269,.T.);
#106=ORIENTED_EDGE('',*,*,#270,.T.);
#107=ORIENTED_EDGE('',*,*,#271,.T.);
#108=ORIENTED_EDGE('',*,*,#272,.T.);
#109=ORIENTED_EDGE('',*,*,#273,.T.);
#110=ORIENTED_EDGE('',*,*,#274,.T.);
#111=ORIENTED_EDGE('',*,*,#275,.T.);
#112=ORIENTED_EDGE('',*,*,#276,.T.);
#113=ORIENTED_EDGE('',*,*,#254,.T.);
#114=ORIENTED_EDGE('',*,*,#277,.T.);
#115=ORIENTED_EDGE('',*,*,#278,.F.);
#116=ORIENTED_EDGE('',*,*,#279,.F.);
#117=ORIENTED_EDGE('',*,*,#280,.T.);
#118=ORIENTED_EDGE('',*,*,#281,.F.);
#119=ORIENTED_EDGE('',*,*,#246,.F.);
#120=ORIENTED_EDGE('',*,*,#282,.T.);
#121=ORIENTED_EDGE('',*,*,#283,.F.);
#122=ORIENTED_EDGE('',*,*,#284,.T.);
#123=ORIENTED_EDGE('',*,*,#285,.F.);
#124=ORIENTED_EDGE('',*,*,#286,.T.);
#125=ORIENTED_EDGE('',*,*,#287,.T.);
#126=ORIENTED_EDGE('',*,*,#288,.T.);
#127=ORIENTED_EDGE('',*,*,#250,.F.);
#128=ORIENTED_EDGE('',*,*,#289,.F.);
#129=ORIENTED_EDGE('',*,*,#290,.F.);
#130=ORIENTED_EDGE('',*,*,#291,.F.);
#131=ORIENTED_EDGE('',*,*,#292,.T.);
#132=ORIENTED_EDGE('',*,*,#260,.F.);
#133=ORIENTED_EDGE('',*,*,#293,.F.);
#134=ORIENTED_EDGE('',*,*,#252,.F.);
#135=ORIENTED_EDGE('',*,*,#294,.T.);
#136=ORIENTED_EDGE('',*,*,#295,.T.);
#137=ORIENTED_EDGE('',*,*,#296,.F.);
#138=ORIENTED_EDGE('',*,*,#297,.F.);
#139=ORIENTED_EDGE('',*,*,#298,.F.);
#140=ORIENTED_EDGE('',*,*,#299,.T.);
#141=ORIENTED_EDGE('',*,*,#300,.F.);
#142=ORIENTED_EDGE('',*,*,#301,.F.);
#143=ORIENTED_EDGE('',*,*,#302,.F.);
#144=ORIENTED_EDGE('',*,*,#284,.F.);
#145=ORIENTED_EDGE('',*,*,#303,.F.);
#146=ORIENTED_EDGE('',*,*,#290,.T.);
#147=ORIENTED_EDGE('',*,*,#304,.T.);
#148=ORIENTED_EDGE('',*,*,#305,.F.);
#149=ORIENTED_EDGE('',*,*,#296,.T.);
#150=ORIENTED_EDGE('',*,*,#306,.T.);
#151=ORIENTED_EDGE('',*,*,#286,.F.);
#152=ORIENTED_EDGE('',*,*,#283,.T.);
#153=ORIENTED_EDGE('',*,*,#307,.T.);
#154=ORIENTED_EDGE('',*,*,#291,.T.);
#155=ORIENTED_EDGE('',*,*,#303,.T.);
#156=ORIENTED_EDGE('',*,*,#295,.F.);
#157=ORIENTED_EDGE('',*,*,#308,.T.);
#158=ORIENTED_EDGE('',*,*,#287,.F.);
#159=ORIENTED_EDGE('',*,*,#306,.F.);
#160=ORIENTED_EDGE('',*,*,#297,.T.);
#161=ORIENTED_EDGE('',*,*,#301,.T.);
#162=ORIENTED_EDGE('',*,*,#299,.F.);
#163=ORIENTED_EDGE('',*,*,#304,.F.);
#164=ORIENTED_EDGE('',*,*,#263,.T.);
#165=ORIENTED_EDGE('',*,*,#277,.F.);
#166=ORIENTED_EDGE('',*,*,#253,.F.);
#167=ORIENTED_EDGE('',*,*,#293,.T.);
#168=ORIENTED_EDGE('',*,*,#305,.T.);
#169=ORIENTED_EDGE('',*,*,#285,.T.);
#170=ORIENTED_EDGE('',*,*,#249,.F.);
#171=ORIENTED_EDGE('',*,*,#266,.T.);
#172=ORIENTED_EDGE('',*,*,#300,.T.);
#173=ORIENTED_EDGE('',*,*,#261,.T.);
#174=ORIENTED_EDGE('',*,*,#265,.T.);
#175=ORIENTED_EDGE('',*,*,#247,.F.);
#176=ORIENTED_EDGE('',*,*,#281,.T.);
#177=ORIENTED_EDGE('',*,*,#302,.T.);
#178=ORIENTED_EDGE('',*,*,#289,.T.);
#179=ORIENTED_EDGE('',*,*,#259,.F.);
#180=ORIENTED_EDGE('',*,*,#267,.F.);
#181=ORIENTED_EDGE('',*,*,#298,.T.);
#182=ORIENTED_EDGE('',*,*,#269,.F.);
#183=ORIENTED_EDGE('',*,*,#309,.T.);
#184=ORIENTED_EDGE('',*,*,#310,.T.);
#185=ORIENTED_EDGE('',*,*,#311,.T.);
#186=ORIENTED_EDGE('',*,*,#270,.F.);
#187=ORIENTED_EDGE('',*,*,#311,.F.);
#188=ORIENTED_EDGE('',*,*,#312,.T.);
#189=ORIENTED_EDGE('',*,*,#313,.T.);
#190=ORIENTED_EDGE('',*,*,#271,.F.);
#191=ORIENTED_EDGE('',*,*,#313,.F.);
#192=ORIENTED_EDGE('',*,*,#314,.T.);
#193=ORIENTED_EDGE('',*,*,#315,.T.);
#194=ORIENTED_EDGE('',*,*,#272,.F.);
#195=ORIENTED_EDGE('',*,*,#315,.F.);
#196=ORIENTED_EDGE('',*,*,#316,.T.);
#197=ORIENTED_EDGE('',*,*,#317,.T.);
#198=ORIENTED_EDGE('',*,*,#273,.F.);
#199=ORIENTED_EDGE('',*,*,#317,.F.);
#200=ORIENTED_EDGE('',*,*,#318,.T.);
#201=ORIENTED_EDGE('',*,*,#319,.T.);
#202=ORIENTED_EDGE('',*,*,#274,.F.);
#203=ORIENTED_EDGE('',*,*,#319,.F.);
#204=ORIENTED_EDGE('',*,*,#320,.T.);
#205=ORIENTED_EDGE('',*,*,#321,.T.);
#206=ORIENTED_EDGE('',*,*,#322,.T.);
#207=ORIENTED_EDGE('',*,*,#323,.T.);
#208=ORIENTED_EDGE('',*,*,#275,.F.);
#209=ORIENTED_EDGE('',*,*,#321,.F.);
#210=ORIENTED_EDGE('',*,*,#324,.T.);
#211=ORIENTED_EDGE('',*,*,#280,.F.);
#212=ORIENTED_EDGE('',*,*,#325,.F.);
#213=ORIENTED_EDGE('',*,*,#279,.T.);
#214=ORIENTED_EDGE('',*,*,#326,.F.);
#215=ORIENTED_EDGE('',*,*,#278,.T.);
#216=ORIENTED_EDGE('',*,*,#326,.T.);
#217=ORIENTED_EDGE('',*,*,#325,.T.);
#218=ORIENTED_EDGE('',*,*,#324,.F.);
#219=ORIENTED_EDGE('',*,*,#310,.F.);
#220=ORIENTED_EDGE('',*,*,#327,.T.);
#221=ORIENTED_EDGE('',*,*,#256,.F.);
#222=ORIENTED_EDGE('',*,*,#328,.T.);
#223=ORIENTED_EDGE('',*,*,#322,.F.);
#224=ORIENTED_EDGE('',*,*,#320,.F.);
#225=ORIENTED_EDGE('',*,*,#318,.F.);
#226=ORIENTED_EDGE('',*,*,#316,.F.);
#227=ORIENTED_EDGE('',*,*,#314,.F.);
#228=ORIENTED_EDGE('',*,*,#312,.F.);
#229=ORIENTED_EDGE('',*,*,#294,.F.);
#230=ORIENTED_EDGE('',*,*,#251,.F.);
#231=ORIENTED_EDGE('',*,*,#288,.F.);
#232=ORIENTED_EDGE('',*,*,#308,.F.);
#233=ORIENTED_EDGE('',*,*,#292,.F.);
#234=ORIENTED_EDGE('',*,*,#307,.F.);
#235=ORIENTED_EDGE('',*,*,#282,.F.);
#236=ORIENTED_EDGE('',*,*,#245,.F.);
#237=ORIENTED_EDGE('',*,*,#327,.F.);
#238=ORIENTED_EDGE('',*,*,#309,.F.);
#239=ORIENTED_EDGE('',*,*,#268,.F.);
#240=ORIENTED_EDGE('',*,*,#257,.F.);
#241=ORIENTED_EDGE('',*,*,#328,.F.);
#242=ORIENTED_EDGE('',*,*,#255,.F.);
#243=ORIENTED_EDGE('',*,*,#276,.F.);
#244=ORIENTED_EDGE('',*,*,#323,.F.);
#245=EDGE_CURVE('',#329,#330,#389,.F.);
#246=EDGE_CURVE('',#330,#331,#37,.F.);
#247=EDGE_CURVE('',#331,#332,#390,.F.);
#248=EDGE_CURVE('',#332,#333,#38,.T.);
#249=EDGE_CURVE('',#333,#334,#391,.T.);
#250=EDGE_CURVE('',#334,#335,#39,.F.);
#251=EDGE_CURVE('',#335,#336,#392,.T.);
#252=EDGE_CURVE('',#336,#337,#40,.F.);
#253=EDGE_CURVE('',#337,#338,#393,.T.);
#254=EDGE_CURVE('',#339,#338,#41,.T.);
#255=EDGE_CURVE('',#339,#340,#394,.F.);
#256=EDGE_CURVE('',#340,#341,#42,.T.);
#257=EDGE_CURVE('',#341,#342,#395,.T.);
#258=EDGE_CURVE('',#343,#342,#43,.T.);
#259=EDGE_CURVE('',#343,#344,#396,.F.);
#260=EDGE_CURVE('',#344,#329,#44,.F.);
#261=EDGE_CURVE('',#345,#346,#397,.F.);
#262=EDGE_CURVE('',#345,#347,#45,.T.);
#263=EDGE_CURVE('',#348,#347,#398,.T.);
#264=EDGE_CURVE('',#346,#348,#46,.T.);
#265=EDGE_CURVE('',#346,#332,#399,.T.);
#266=EDGE_CURVE('',#333,#348,#400,.T.);
#267=EDGE_CURVE('',#345,#343,#401,.T.);
#268=EDGE_CURVE('',#342,#349,#47,.F.);
#269=EDGE_CURVE('',#349,#350,#402,.T.);
#270=EDGE_CURVE('',#350,#351,#48,.T.);
#271=EDGE_CURVE('',#351,#352,#403,.T.);
#272=EDGE_CURVE('',#352,#353,#49,.T.);
#273=EDGE_CURVE('',#353,#354,#404,.T.);
#274=EDGE_CURVE('',#354,#355,#50,.T.);
#275=EDGE_CURVE('',#355,#356,#405,.T.);
#276=EDGE_CURVE('',#356,#339,#51,.F.);
#277=EDGE_CURVE('',#338,#347,#406,.T.);
#278=EDGE_CURVE('',#357,#357,#52,.T.);
#279=EDGE_CURVE('',#358,#358,#53,.T.);
#280=EDGE_CURVE('',#359,#359,#54,.T.);
#281=EDGE_CURVE('',#331,#360,#407,.T.);
#282=EDGE_CURVE('',#330,#361,#55,.T.);
#283=EDGE_CURVE('',#362,#361,#408,.T.);
#284=EDGE_CURVE('',#362,#360,#409,.T.);
#285=EDGE_CURVE('',#363,#334,#410,.T.);
#286=EDGE_CURVE('',#363,#364,#411,.T.);
#287=EDGE_CURVE('',#364,#365,#412,.T.);
#288=EDGE_CURVE('',#365,#335,#56,.T.);
#289=EDGE_CURVE('',#366,#344,#413,.T.);
#290=EDGE_CURVE('',#367,#366,#414,.T.);
#291=EDGE_CURVE('',#368,#367,#415,.T.);
#292=EDGE_CURVE('',#368,#329,#57,.T.);
#293=EDGE_CURVE('',#337,#369,#416,.T.);
#294=EDGE_CURVE('',#336,#370,#58,.T.);
#295=EDGE_CURVE('',#370,#371,#417,.T.);
#296=EDGE_CURVE('',#369,#371,#418,.T.);
#297=EDGE_CURVE('',#372,#372,#59,.T.);
#298=EDGE_CURVE('',#373,#373,#60,.F.);
#299=EDGE_CURVE('',#374,#374,#61,.T.);
#300=EDGE_CURVE('',#375,#375,#62,.F.);
#301=EDGE_CURVE('',#376,#376,#63,.T.);
#302=EDGE_CURVE('',#360,#366,#64,.T.);
#303=EDGE_CURVE('',#367,#362,#65,.T.);
#304=EDGE_CURVE('',#377,#377,#66,.T.);
#305=EDGE_CURVE('',#369,#363,#67,.T.);
#306=EDGE_CURVE('',#371,#364,#68,.T.);
#307=EDGE_CURVE('',#361,#368,#419,.T.);
#308=EDGE_CURVE('',#370,#365,#420,.T.);
#309=EDGE_CURVE('',#349,#378,#421,.T.);
#310=EDGE_CURVE('',#378,#379,#422,.T.);
#311=EDGE_CURVE('',#379,#350,#423,.T.);
#312=EDGE_CURVE('',#379,#380,#69,.T.);
#313=EDGE_CURVE('',#380,#351,#424,.T.);
#314=EDGE_CURVE('',#380,#381,#425,.T.);
#315=EDGE_CURVE('',#381,#352,#426,.T.);
#316=EDGE_CURVE('',#381,#382,#70,.T.);
#317=EDGE_CURVE('',#382,#353,#427,.T.);
#318=EDGE_CURVE('',#382,#383,#428,.T.);
#319=EDGE_CURVE('',#383,#354,#429,.T.);
#320=EDGE_CURVE('',#383,#384,#71,.T.);
#321=EDGE_CURVE('',#384,#355,#430,.T.);
#322=EDGE_CURVE('',#384,#385,#431,.T.);
#323=EDGE_CURVE('',#385,#356,#432,.F.);
#324=EDGE_CURVE('',#386,#386,#72,.T.);
#325=EDGE_CURVE('',#387,#387,#73,.T.);
#326=EDGE_CURVE('',#388,#388,#74,.T.);
#327=EDGE_CURVE('',#378,#341,#75,.T.);
#328=EDGE_CURVE('',#340,#385,#76,.T.);
#329=VERTEX_POINT('',#907);
#330=VERTEX_POINT('',#908);
#331=VERTEX_POINT('',#910);
#332=VERTEX_POINT('',#912);
#333=VERTEX_POINT('',#914);
#334=VERTEX_POINT('',#916);
#335=VERTEX_POINT('',#918);
#336=VERTEX_POINT('',#920);
#337=VERTEX_POINT('',#922);
#338=VERTEX_POINT('',#924);
#339=VERTEX_POINT('',#926);
#340=VERTEX_POINT('',#928);
#341=VERTEX_POINT('',#930);
#342=VERTEX_POINT('',#932);
#343=VERTEX_POINT('',#934);
#344=VERTEX_POINT('',#936);
#345=VERTEX_POINT('',#940);
#346=VERTEX_POINT('',#941);
#347=VERTEX_POINT('',#943);
#348=VERTEX_POINT('',#945);
#349=VERTEX_POINT('',#953);
#350=VERTEX_POINT('',#955);
#351=VERTEX_POINT('',#957);
#352=VERTEX_POINT('',#959);
#353=VERTEX_POINT('',#961);
#354=VERTEX_POINT('',#963);
#355=VERTEX_POINT('',#965);
#356=VERTEX_POINT('',#967);
#357=VERTEX_POINT('',#971);
#358=VERTEX_POINT('',#973);
#359=VERTEX_POINT('',#975);
#360=VERTEX_POINT('',#978);
#361=VERTEX_POINT('',#980);
#362=VERTEX_POINT('',#982);
#363=VERTEX_POINT('',#986);
#364=VERTEX_POINT('',#988);
#365=VERTEX_POINT('',#990);
#366=VERTEX_POINT('',#994);
#367=VERTEX_POINT('',#996);
#368=VERTEX_POINT('',#998);
#369=VERTEX_POINT('',#1002);
#370=VERTEX_POINT('',#1004);
#371=VERTEX_POINT('',#1006);
#372=VERTEX_POINT('',#1010);
#373=VERTEX_POINT('',#1012);
#374=VERTEX_POINT('',#1015);
#375=VERTEX_POINT('',#1017);
#376=VERTEX_POINT('',#1020);
#377=VERTEX_POINT('',#1025);
#378=VERTEX_POINT('',#1038);
#379=VERTEX_POINT('',#1040);
#380=VERTEX_POINT('',#1044);
#381=VERTEX_POINT('',#1048);
#382=VERTEX_POINT('',#1052);
#383=VERTEX_POINT('',#1056);
#384=VERTEX_POINT('',#1060);
#385=VERTEX_POINT('',#1064);
#386=VERTEX_POINT('',#1068);
#387=VERTEX_POINT('',#1071);
#388=VERTEX_POINT('',#1074);
#389=LINE('',#906,#433);
#390=LINE('',#911,#434);
#391=LINE('',#915,#435);
#392=LINE('',#919,#436);
#393=LINE('',#923,#437);
#394=LINE('',#927,#438);
#395=LINE('',#931,#439);
#396=LINE('',#935,#440);
#397=LINE('',#939,#441);
#398=LINE('',#944,#442);
#399=LINE('',#948,#443);
#400=LINE('',#949,#444);
#401=LINE('',#951,#445);
#402=LINE('',#954,#446);
#403=LINE('',#958,#447);
#404=LINE('',#962,#448);
#405=LINE('',#966,#449);
#406=LINE('',#969,#450);
#407=LINE('',#977,#451);
#408=LINE('',#981,#452);
#409=LINE('',#983,#453);
#410=LINE('',#985,#454);
#411=LINE('',#987,#455);
#412=LINE('',#989,#456);
#413=LINE('',#993,#457);
#414=LINE('',#995,#458);
#415=LINE('',#997,#459);
#416=LINE('',#1001,#460);
#417=LINE('',#1005,#461);
#418=LINE('',#1007,#462);
#419=LINE('',#1029,#463);
#420=LINE('',#1031,#464);
#421=LINE('',#1037,#465);
#422=LINE('',#1039,#466);
#423=LINE('',#1041,#467);
#424=LINE('',#1045,#468);
#425=LINE('',#1047,#469);
#426=LINE('',#1049,#470);
#427=LINE('',#1053,#471);
#428=LINE('',#1055,#472);
#429=LINE('',#1057,#473);
#430=LINE('',#1061,#474);
#431=LINE('',#1063,#475);
#432=LINE('',#1065,#476);
#433=VECTOR('',#716,1000.);
#434=VECTOR('',#719,1000.);
#435=VECTOR('',#722,1000.);
#436=VECTOR('',#725,1000.);
#437=VECTOR('',#728,1000.);
#438=VECTOR('',#731,1000.);
#439=VECTOR('',#734,1000.);
#440=VECTOR('',#737,1000.);
#441=VECTOR('',#742,1000.);
#442=VECTOR('',#745,1000.);
#443=VECTOR('',#750,1000.);
#444=VECTOR('',#751,1000.);
#445=VECTOR('',#754,1000.);
#446=VECTOR('',#757,1000.);
#447=VECTOR('',#760,1000.);
#448=VECTOR('',#763,1000.);
#449=VECTOR('',#766,1000.);
#450=VECTOR('',#769,1000.);
#451=VECTOR('',#778,1000.);
#452=VECTOR('',#781,1000.);
#453=VECTOR('',#782,1000.);
#454=VECTOR('',#785,1000.);
#455=VECTOR('',#786,1000.);
#456=VECTOR('',#787,1000.);
#457=VECTOR('',#792,1000.);
#458=VECTOR('',#793,1000.);
#459=VECTOR('',#794,1000.);
#460=VECTOR('',#799,1000.);
#461=VECTOR('',#802,1000.);
#462=VECTOR('',#803,1000.);
#463=VECTOR('',#834,1000.);
#464=VECTOR('',#837,1000.);
#465=VECTOR('',#848,1000.);
#466=VECTOR('',#849,1000.);
#467=VECTOR('',#850,1000.);
#468=VECTOR('',#855,1000.);
#469=VECTOR('',#858,1000.);
#470=VECTOR('',#859,1000.);
#471=VECTOR('',#864,1000.);
#472=VECTOR('',#867,1000.);
#473=VECTOR('',#868,1000.);
#474=VECTOR('',#873,1000.);
#475=VECTOR('',#876,1000.);
#476=VECTOR('',#877,1000.);
#477=EDGE_LOOP('',(#77,#78,#79,#80,#81,#82,#83,#84,#85,#86,#87,#88,#89,
#90,#91,#92));
#478=EDGE_LOOP('',(#93,#94,#95,#96));
#479=EDGE_LOOP('',(#97,#98,#99,#100));
#480=EDGE_LOOP('',(#101,#102,#103,#104,#105,#106,#107,#108,#109,#110,#111,
#112,#113,#114));
#481=EDGE_LOOP('',(#115));
#482=EDGE_LOOP('',(#116));
#483=EDGE_LOOP('',(#117));
#484=EDGE_LOOP('',(#118,#119,#120,#121,#122));
#485=EDGE_LOOP('',(#123,#124,#125,#126,#127));
#486=EDGE_LOOP('',(#128,#129,#130,#131,#132));
#487=EDGE_LOOP('',(#133,#134,#135,#136,#137));
#488=EDGE_LOOP('',(#138));
#489=EDGE_LOOP('',(#139));
#490=EDGE_LOOP('',(#140));
#491=EDGE_LOOP('',(#141));
#492=EDGE_LOOP('',(#142));
#493=EDGE_LOOP('',(#143,#144,#145,#146));
#494=EDGE_LOOP('',(#147));
#495=EDGE_LOOP('',(#148,#149,#150,#151));
#496=EDGE_LOOP('',(#152,#153,#154,#155));
#497=EDGE_LOOP('',(#156,#157,#158,#159));
#498=EDGE_LOOP('',(#160));
#499=EDGE_LOOP('',(#161));
#500=EDGE_LOOP('',(#162));
#501=EDGE_LOOP('',(#163));
#502=EDGE_LOOP('',(#164,#165,#166,#167,#168,#169,#170,#171));
#503=EDGE_LOOP('',(#172));
#504=EDGE_LOOP('',(#173,#174,#175,#176,#177,#178,#179,#180));
#505=EDGE_LOOP('',(#181));
#506=EDGE_LOOP('',(#182,#183,#184,#185));
#507=EDGE_LOOP('',(#186,#187,#188,#189));
#508=EDGE_LOOP('',(#190,#191,#192,#193));
#509=EDGE_LOOP('',(#194,#195,#196,#197));
#510=EDGE_LOOP('',(#198,#199,#200,#201));
#511=EDGE_LOOP('',(#202,#203,#204,#205));
#512=EDGE_LOOP('',(#206,#207,#208,#209));
#513=EDGE_LOOP('',(#210));
#514=EDGE_LOOP('',(#211));
#515=EDGE_LOOP('',(#212));
#516=EDGE_LOOP('',(#213));
#517=EDGE_LOOP('',(#214));
#518=EDGE_LOOP('',(#215));
#519=EDGE_LOOP('',(#216));
#520=EDGE_LOOP('',(#217));
#521=EDGE_LOOP('',(#218));
#522=EDGE_LOOP('',(#219,#220,#221,#222,#223,#224,#225,#226,#227,#228));
#523=EDGE_LOOP('',(#229,#230,#231,#232));
#524=EDGE_LOOP('',(#233,#234,#235,#236));
#525=EDGE_LOOP('',(#237,#238,#239,#240));
#526=EDGE_LOOP('',(#241,#242,#243,#244));
#527=FACE_BOUND('',#477,.T.);
#528=FACE_BOUND('',#478,.T.);
#529=FACE_BOUND('',#479,.T.);
#530=FACE_BOUND('',#480,.T.);
#531=FACE_BOUND('',#481,.T.);
#532=FACE_BOUND('',#482,.T.);
#533=FACE_BOUND('',#483,.T.);
#534=FACE_BOUND('',#484,.T.);
#535=FACE_BOUND('',#485,.T.);
#536=FACE_BOUND('',#486,.T.);
#537=FACE_BOUND('',#487,.T.);
#538=FACE_BOUND('',#488,.T.);
#539=FACE_BOUND('',#489,.T.);
#540=FACE_BOUND('',#490,.T.);
#541=FACE_BOUND('',#491,.T.);
#542=FACE_BOUND('',#492,.T.);
#543=FACE_BOUND('',#493,.T.);
#544=FACE_BOUND('',#494,.T.);
#545=FACE_BOUND('',#495,.T.);
#546=FACE_BOUND('',#496,.T.);
#547=FACE_BOUND('',#497,.T.);
#548=FACE_BOUND('',#498,.T.);
#549=FACE_BOUND('',#499,.T.);
#550=FACE_BOUND('',#500,.T.);
#551=FACE_BOUND('',#501,.T.);
#552=FACE_BOUND('',#502,.T.);
#553=FACE_BOUND('',#503,.T.);
#554=FACE_BOUND('',#504,.T.);
#555=FACE_BOUND('',#505,.T.);
#556=FACE_BOUND('',#506,.T.);
#557=FACE_BOUND('',#507,.T.);
#558=FACE_BOUND('',#508,.T.);
#559=FACE_BOUND('',#509,.T.);
#560=FACE_BOUND('',#510,.T.);
#561=FACE_BOUND('',#511,.T.);
#562=FACE_BOUND('',#512,.T.);
#563=FACE_BOUND('',#513,.T.);
#564=FACE_BOUND('',#514,.T.);
#565=FACE_BOUND('',#515,.T.);
#566=FACE_BOUND('',#516,.T.);
#567=FACE_BOUND('',#517,.T.);
#568=FACE_BOUND('',#518,.T.);
#569=FACE_BOUND('',#519,.T.);
#570=FACE_BOUND('',#520,.T.);
#571=FACE_BOUND('',#521,.T.);
#572=FACE_BOUND('',#522,.T.);
#573=FACE_BOUND('',#523,.T.);
#574=FACE_BOUND('',#524,.T.);
#575=FACE_BOUND('',#525,.T.);
#576=FACE_BOUND('',#526,.T.);
#577=CYLINDRICAL_SURFACE('',#639,35.);
#578=CYLINDRICAL_SURFACE('',#648,25.);
#579=CYLINDRICAL_SURFACE('',#669,7.);
#580=CYLINDRICAL_SURFACE('',#672,7.);
#581=CYLINDRICAL_SURFACE('',#675,14.);
#582=CYLINDRICAL_SURFACE('',#679,14.);
#583=CYLINDRICAL_SURFACE('',#690,20.);
#584=CYLINDRICAL_SURFACE('',#693,20.);
#585=CYLINDRICAL_SURFACE('',#696,20.);
#586=CYLINDRICAL_SURFACE('',#699,10.);
#587=CYLINDRICAL_SURFACE('',#701,10.);
#588=CYLINDRICAL_SURFACE('',#703,10.);
#589=CYLINDRICAL_SURFACE('',#708,8.);
#590=CYLINDRICAL_SURFACE('',#709,9.6);
#591=CYLINDRICAL_SURFACE('',#710,9.6);
#592=CYLINDRICAL_SURFACE('',#711,9.6);
#593=ADVANCED_FACE('',(#527),#577,.T.);
#594=ADVANCED_FACE('',(#528),#578,.F.);
#595=ADVANCED_FACE('',(#529),#20,.F.);
#596=ADVANCED_FACE('',(#530,#531,#532,#533),#21,.T.);
#597=ADVANCED_FACE('',(#534),#22,.F.);
#598=ADVANCED_FACE('',(#535),#23,.F.);
#599=ADVANCED_FACE('',(#536),#24,.F.);
#600=ADVANCED_FACE('',(#537),#25,.F.);
#601=ADVANCED_FACE('',(#538,#539),#579,.F.);
#602=ADVANCED_FACE('',(#540,#541),#580,.F.);
#603=ADVANCED_FACE('',(#542,#543),#581,.T.);
#604=ADVANCED_FACE('',(#544,#545),#582,.T.);
#605=ADVANCED_FACE('',(#546),#26,.F.);
#606=ADVANCED_FACE('',(#547),#27,.T.);
#607=ADVANCED_FACE('',(#548,#549),#28,.T.);
#608=ADVANCED_FACE('',(#550,#551),#29,.F.);
#609=ADVANCED_FACE('',(#552,#553),#30,.T.);
#610=ADVANCED_FACE('',(#554,#555),#31,.T.);
#611=ADVANCED_FACE('',(#556),#32,.T.);
#612=ADVANCED_FACE('',(#557),#583,.T.);
#613=ADVANCED_FACE('',(#558),#33,.T.);
#614=ADVANCED_FACE('',(#559),#584,.T.);
#615=ADVANCED_FACE('',(#560),#34,.T.);
#616=ADVANCED_FACE('',(#561),#585,.T.);
#617=ADVANCED_FACE('',(#562),#35,.T.);
#618=ADVANCED_FACE('',(#563,#564),#586,.F.);
#619=ADVANCED_FACE('',(#565,#566),#587,.F.);
#620=ADVANCED_FACE('',(#567,#568),#588,.F.);
#621=ADVANCED_FACE('',(#569,#570,#571,#572),#36,.F.);
#622=ADVANCED_FACE('',(#573),#589,.F.);
#623=ADVANCED_FACE('',(#574),#590,.F.);
#624=ADVANCED_FACE('',(#575),#591,.F.);
#625=ADVANCED_FACE('',(#576),#592,.F.);
#626=CLOSED_SHELL('',(#593,#594,#595,#596,#597,#598,#599,#600,#601,#602,
#603,#604,#605,#606,#607,#608,#609,#610,#611,#612,#613,#614,#615,#616,#617,
#618,#619,#620,#621,#622,#623,#624,#625));
#627=STYLED_ITEM('',(#628),#635);
#628=PRESENTATION_STYLE_ASSIGNMENT((#629));
#629=SURFACE_STYLE_USAGE(.BOTH.,#630);
#630=SURFACE_SIDE_STYLE('',(#631));
#631=SURFACE_STYLE_FILL_AREA(#632);
#632=FILL_AREA_STYLE('',(#633));
#633=FILL_AREA_STYLE_COLOUR('',#634);
#634=COLOUR_RGB('',0.331739127635956,0.340869575738907,0.349999994039536);
#635=MANIFOLD_SOLID_BREP('',#626);
#636=SHAPE_DEFINITION_REPRESENTATION(#1088,#637);
#637=SHAPE_REPRESENTATION('Esercizio 1',(#638),#1083);
#638=AXIS2_PLACEMENT_3D('',#904,#712,#713);
#639=AXIS2_PLACEMENT_3D('',#905,#714,#715);
#640=AXIS2_PLACEMENT_3D('',#909,#717,#718);
#641=AXIS2_PLACEMENT_3D('',#913,#720,#721);
#642=AXIS2_PLACEMENT_3D('',#917,#723,#724);
#643=AXIS2_PLACEMENT_3D('',#921,#726,#727);
#644=AXIS2_PLACEMENT_3D('',#925,#729,#730);
#645=AXIS2_PLACEMENT_3D('',#929,#732,#733);
#646=AXIS2_PLACEMENT_3D('',#933,#735,#736);
#647=AXIS2_PLACEMENT_3D('',#937,#738,#739);
#648=AXIS2_PLACEMENT_3D('',#938,#740,#741);
#649=AXIS2_PLACEMENT_3D('',#942,#743,#744);
#650=AXIS2_PLACEMENT_3D('',#946,#746,#747);
#651=AXIS2_PLACEMENT_3D('',#947,#748,#749);
#652=AXIS2_PLACEMENT_3D('',#950,#752,#753);
#653=AXIS2_PLACEMENT_3D('',#952,#755,#756);
#654=AXIS2_PLACEMENT_3D('',#956,#758,#759);
#655=AXIS2_PLACEMENT_3D('',#960,#761,#762);
#656=AXIS2_PLACEMENT_3D('',#964,#764,#765);
#657=AXIS2_PLACEMENT_3D('',#968,#767,#768);
#658=AXIS2_PLACEMENT_3D('',#970,#770,#771);
#659=AXIS2_PLACEMENT_3D('',#972,#772,#773);
#660=AXIS2_PLACEMENT_3D('',#974,#774,#775);
#661=AXIS2_PLACEMENT_3D('',#976,#776,#777);
#662=AXIS2_PLACEMENT_3D('',#979,#779,#780);
#663=AXIS2_PLACEMENT_3D('',#984,#783,#784);
#664=AXIS2_PLACEMENT_3D('',#991,#788,#789);
#665=AXIS2_PLACEMENT_3D('',#992,#790,#791);
#666=AXIS2_PLACEMENT_3D('',#999,#795,#796);
#667=AXIS2_PLACEMENT_3D('',#1000,#797,#798);
#668=AXIS2_PLACEMENT_3D('',#1003,#800,#801);
#669=AXIS2_PLACEMENT_3D('',#1008,#804,#805);
#670=AXIS2_PLACEMENT_3D('',#1009,#806,#807);
#671=AXIS2_PLACEMENT_3D('',#1011,#808,#809);
#672=AXIS2_PLACEMENT_3D('',#1013,#810,#811);
#673=AXIS2_PLACEMENT_3D('',#1014,#812,#813);
#674=AXIS2_PLACEMENT_3D('',#1016,#814,#815);
#675=AXIS2_PLACEMENT_3D('',#1018,#816,#817);
#676=AXIS2_PLACEMENT_3D('',#1019,#818,#819);
#677=AXIS2_PLACEMENT_3D('',#1021,#820,#821);
#678=AXIS2_PLACEMENT_3D('',#1022,#822,#823);
#679=AXIS2_PLACEMENT_3D('',#1023,#824,#825);
#680=AXIS2_PLACEMENT_3D('',#1024,#826,#827);
#681=AXIS2_PLACEMENT_3D('',#1026,#828,#829);
#682=AXIS2_PLACEMENT_3D('',#1027,#830,#831);
#683=AXIS2_PLACEMENT_3D('',#1028,#832,#833);
#684=AXIS2_PLACEMENT_3D('',#1030,#835,#836);
#685=AXIS2_PLACEMENT_3D('',#1032,#838,#839);
#686=AXIS2_PLACEMENT_3D('',#1033,#840,#841);
#687=AXIS2_PLACEMENT_3D('',#1034,#842,#843);
#688=AXIS2_PLACEMENT_3D('',#1035,#844,#845);
#689=AXIS2_PLACEMENT_3D('',#1036,#846,#847);
#690=AXIS2_PLACEMENT_3D('',#1042,#851,#852);
#691=AXIS2_PLACEMENT_3D('',#1043,#853,#854);
#692=AXIS2_PLACEMENT_3D('',#1046,#856,#857);
#693=AXIS2_PLACEMENT_3D('',#1050,#860,#861);
#694=AXIS2_PLACEMENT_3D('',#1051,#862,#863);
#695=AXIS2_PLACEMENT_3D('',#1054,#865,#866);
#696=AXIS2_PLACEMENT_3D('',#1058,#869,#870);
#697=AXIS2_PLACEMENT_3D('',#1059,#871,#872);
#698=AXIS2_PLACEMENT_3D('',#1062,#874,#875);
#699=AXIS2_PLACEMENT_3D('',#1066,#878,#879);
#700=AXIS2_PLACEMENT_3D('',#1067,#880,#881);
#701=AXIS2_PLACEMENT_3D('',#1069,#882,#883);
#702=AXIS2_PLACEMENT_3D('',#1070,#884,#885);
#703=AXIS2_PLACEMENT_3D('',#1072,#886,#887);
#704=AXIS2_PLACEMENT_3D('',#1073,#888,#889);
#705=AXIS2_PLACEMENT_3D('',#1075,#890,#891);
#706=AXIS2_PLACEMENT_3D('',#1076,#892,#893);
#707=AXIS2_PLACEMENT_3D('',#1077,#894,#895);
#708=AXIS2_PLACEMENT_3D('',#1078,#896,#897);
#709=AXIS2_PLACEMENT_3D('',#1079,#898,#899);
#710=AXIS2_PLACEMENT_3D('',#1080,#900,#901);
#711=AXIS2_PLACEMENT_3D('',#1081,#902,#903);
#712=DIRECTION('',(0.,0.,1.));
#713=DIRECTION('',(1.,0.,0.));
#714=DIRECTION('',(0.,1.,0.));
#715=DIRECTION('',(0.,0.,1.));
#716=DIRECTION('',(0.,1.,0.));
#717=DIRECTION('',(0.,1.,1.5770213417971E-16));
#718=DIRECTION('',(0.,-1.5770213417971E-16,1.));
#719=DIRECTION('',(0.,1.,0.));
#720=DIRECTION('',(0.,1.,0.));
#721=DIRECTION('',(1.,0.,0.));
#722=DIRECTION('',(0.,1.,0.));
#723=DIRECTION('',(0.,1.,1.5770213417971E-16));
#724=DIRECTION('',(0.,-1.5770213417971E-16,1.));
#725=DIRECTION('',(0.,1.,0.));
#726=DIRECTION('',(0.,-1.,0.));
#727=DIRECTION('',(0.,0.,-1.));
#728=DIRECTION('',(0.,1.,0.));
#729=DIRECTION('',(0.,1.,0.));
#730=DIRECTION('',(1.,0.,0.));
#731=DIRECTION('',(0.,1.,0.));
#732=DIRECTION('',(0.,-1.,0.));
#733=DIRECTION('',(0.,0.,1.));
#734=DIRECTION('',(0.,1.,0.));
#735=DIRECTION('',(0.,1.,0.));
#736=DIRECTION('',(1.,0.,0.));
#737=DIRECTION('',(0.,1.,0.));
#738=DIRECTION('',(0.,-1.,0.));
#739=DIRECTION('',(0.,0.,-1.));
#740=DIRECTION('',(0.,1.,0.));
#741=DIRECTION('',(0.,0.,1.));
#742=DIRECTION('',(0.,1.,0.));
#743=DIRECTION('',(0.,1.,0.));
#744=DIRECTION('',(1.,0.,0.));
#745=DIRECTION('',(0.,1.,0.));
#746=DIRECTION('',(0.,1.,0.));
#747=DIRECTION('',(1.,0.,0.));
#748=DIRECTION('',(0.,1.,0.));
#749=DIRECTION('',(0.,0.,1.));
#750=DIRECTION('',(0.,0.,1.));
#751=DIRECTION('',(0.,0.,-1.));
#752=DIRECTION('',(0.,1.,0.));
#753=DIRECTION('',(0.,0.,1.));
#754=DIRECTION('',(0.,0.,1.));
#755=DIRECTION('',(0.,1.,0.));
#756=DIRECTION('',(0.,0.,1.));
#757=DIRECTION('',(1.,0.,1.63059477265296E-16));
#758=DIRECTION('',(0.,1.,0.));
#759=DIRECTION('',(-1.,0.,0.));
#760=DIRECTION('',(-0.707106781186547,0.,-0.707106781186548));
#761=DIRECTION('',(0.,1.,0.));
#762=DIRECTION('',(1.,0.,0.));
#763=DIRECTION('',(-0.707106781186548,0.,0.707106781186547));
#764=DIRECTION('',(0.,1.,0.));
#765=DIRECTION('',(1.,0.,0.));
#766=DIRECTION('',(1.,0.,-1.63059477265296E-16));
#767=DIRECTION('',(0.,1.,0.));
#768=DIRECTION('',(0.,0.,1.));
#769=DIRECTION('',(0.,0.,-1.));
#770=DIRECTION('',(0.,1.,0.));
#771=DIRECTION('',(1.,0.,0.));
#772=DIRECTION('',(0.,1.,0.));
#773=DIRECTION('',(1.,0.,0.));
#774=DIRECTION('',(0.,-1.,0.));
#775=DIRECTION('',(1.,0.,0.));
#776=DIRECTION('',(0.,1.,1.5770213417971E-16));
#777=DIRECTION('',(0.,-1.5770213417971E-16,1.));
#778=DIRECTION('',(0.,-1.5770213417971E-16,1.));
#779=DIRECTION('',(0.,1.,1.5770213417971E-16));
#780=DIRECTION('',(0.,-1.5770213417971E-16,1.));
#781=DIRECTION('',(9.65615177639108E-33,1.5770213417971E-16,-1.));
#782=DIRECTION('',(-1.,0.,0.));
#783=DIRECTION('',(0.,1.,1.5770213417971E-16));
#784=DIRECTION('',(0.,-1.5770213417971E-16,1.));
#785=DIRECTION('',(0.,1.5770213417971E-16,-1.));
#786=DIRECTION('',(-1.,0.,0.));
#787=DIRECTION('',(9.65615177639108E-33,1.5770213417971E-16,-1.));
#788=DIRECTION('',(0.,1.,1.5770213417971E-16));
#789=DIRECTION('',(0.,-1.5770213417971E-16,1.));
#790=DIRECTION('',(0.,-1.,0.));
#791=DIRECTION('',(0.,0.,-1.));
#792=DIRECTION('',(0.,0.,-1.));
#793=DIRECTION('',(-1.,0.,0.));
#794=DIRECTION('',(0.,0.,1.));
#795=DIRECTION('',(0.,-1.,0.));
#796=DIRECTION('',(0.,0.,-1.));
#797=DIRECTION('',(0.,-1.,0.));
#798=DIRECTION('',(0.,0.,-1.));
#799=DIRECTION('',(0.,0.,1.));
#800=DIRECTION('',(0.,-1.,0.));
#801=DIRECTION('',(0.,0.,-1.));
#802=DIRECTION('',(0.,0.,1.));
#803=DIRECTION('',(-1.,0.,0.));
#804=DIRECTION('',(-1.,0.,0.));
#805=DIRECTION('',(0.,0.,1.));
#806=DIRECTION('',(-1.,6.12303176911189E-17,0.));
#807=DIRECTION('',(6.12303176911189E-17,1.,0.));
#808=DIRECTION('',(-1.,0.,0.));
#809=DIRECTION('',(0.,0.,1.));
#810=DIRECTION('',(-1.,0.,0.));
#811=DIRECTION('',(0.,0.,1.));
#812=DIRECTION('',(-1.,6.12303176911189E-17,0.));
#813=DIRECTION('',(6.12303176911189E-17,1.,0.));
#814=DIRECTION('',(1.,0.,0.));
#815=DIRECTION('',(0.,0.,-1.));
#816=DIRECTION('',(-1.,0.,0.));
#817=DIRECTION('',(0.,0.,1.));
#818=DIRECTION('',(1.,-6.12303176911189E-17,0.));
#819=DIRECTION('',(6.12303176911189E-17,1.,0.));
#820=DIRECTION('',(-1.,0.,0.));
#821=DIRECTION('',(0.,0.,1.));
#822=DIRECTION('',(-1.,6.12303176911189E-17,0.));
#823=DIRECTION('',(6.12303176911189E-17,1.,0.));
#824=DIRECTION('',(-1.,0.,0.));
#825=DIRECTION('',(0.,0.,1.));
#826=DIRECTION('',(1.,-6.12303176911189E-17,0.));
#827=DIRECTION('',(6.12303176911189E-17,1.,0.));
#828=DIRECTION('',(1.,0.,0.));
#829=DIRECTION('',(0.,0.,-1.));
#830=DIRECTION('',(-1.,6.12303176911189E-17,0.));
#831=DIRECTION('',(6.12303176911189E-17,1.,0.));
#832=DIRECTION('',(-1.,6.12303176911189E-17,0.));
#833=DIRECTION('',(-6.12303176911189E-17,-1.,0.));
#834=DIRECTION('',(6.12303176911189E-17,1.,0.));
#835=DIRECTION('',(-1.,6.12303176911189E-17,0.));
#836=DIRECTION('',(-6.12303176911189E-17,-1.,0.));
#837=DIRECTION('',(-6.12303176911189E-17,-1.,0.));
#838=DIRECTION('',(1.,-6.12303176911189E-17,0.));
#839=DIRECTION('',(6.12303176911189E-17,1.,0.));
#840=DIRECTION('',(1.,-6.12303176911189E-17,0.));
#841=DIRECTION('',(6.12303176911189E-17,1.,0.));
#842=DIRECTION('',(1.,0.,0.));
#843=DIRECTION('',(0.,0.,-1.));
#844=DIRECTION('',(-1.,0.,0.));
#845=DIRECTION('',(0.,0.,1.));
#846=DIRECTION('',(-1.63059477265296E-16,0.,1.));
#847=DIRECTION('',(1.,0.,1.63059477265296E-16));
#848=DIRECTION('',(0.,-1.,0.));
#849=DIRECTION('',(1.,0.,1.63059477265296E-16));
#850=DIRECTION('',(0.,1.,0.));
#851=DIRECTION('',(0.,1.,0.));
#852=DIRECTION('',(0.,0.,1.));
#853=DIRECTION('',(0.,1.,0.));
#854=DIRECTION('',(-1.,0.,0.));
#855=DIRECTION('',(0.,1.,0.));
#856=DIRECTION('',(0.707106781186548,0.,-0.707106781186547));
#857=DIRECTION('',(-0.707106781186547,0.,-0.707106781186548));
#858=DIRECTION('',(-0.707106781186547,0.,-0.707106781186548));
#859=DIRECTION('',(0.,1.,0.));
#860=DIRECTION('',(0.,1.,0.));
#861=DIRECTION('',(0.,0.,1.));
#862=DIRECTION('',(0.,1.,0.));
#863=DIRECTION('',(1.,0.,0.));
#864=DIRECTION('',(0.,1.,0.));
#865=DIRECTION('',(-0.707106781186547,0.,-0.707106781186548));
#866=DIRECTION('',(-0.707106781186548,0.,0.707106781186547));
#867=DIRECTION('',(-0.707106781186548,0.,0.707106781186547));
#868=DIRECTION('',(0.,1.,0.));
#869=DIRECTION('',(0.,1.,0.));
#870=DIRECTION('',(0.,0.,1.));
#871=DIRECTION('',(0.,1.,0.));
#872=DIRECTION('',(1.,0.,0.));
#873=DIRECTION('',(0.,1.,0.));
#874=DIRECTION('',(1.63059477265296E-16,0.,1.));
#875=DIRECTION('',(1.,0.,-1.63059477265296E-16));
#876=DIRECTION('',(1.,0.,-1.63059477265296E-16));
#877=DIRECTION('',(0.,-1.,0.));
#878=DIRECTION('',(0.,1.,0.));
#879=DIRECTION('',(0.,0.,1.));
#880=DIRECTION('',(0.,-1.,0.));
#881=DIRECTION('',(1.,0.,0.));
#882=DIRECTION('',(0.,1.,0.));
#883=DIRECTION('',(0.,0.,1.));
#884=DIRECTION('',(0.,1.,0.));
#885=DIRECTION('',(1.,0.,0.));
#886=DIRECTION('',(0.,1.,0.));
#887=DIRECTION('',(0.,0.,1.));
#888=DIRECTION('',(0.,1.,0.));
#889=DIRECTION('',(1.,0.,0.));
#890=DIRECTION('',(0.,1.,0.));
#891=DIRECTION('',(0.,0.,1.));
#892=DIRECTION('',(0.,1.,0.));
#893=DIRECTION('',(0.,0.,1.));
#894=DIRECTION('',(0.,1.,0.));
#895=DIRECTION('',(0.,0.,1.));
#896=DIRECTION('',(0.,1.,0.));
#897=DIRECTION('',(0.,0.,1.));
#898=DIRECTION('',(0.,1.,0.));
#899=DIRECTION('',(0.,0.,1.));
#900=DIRECTION('',(0.,1.,0.));
#901=DIRECTION('',(0.,0.,1.));
#902=DIRECTION('',(0.,1.,0.));
#903=DIRECTION('',(0.,0.,1.));
#904=CARTESIAN_POINT('',(0.,0.,0.));
#905=CARTESIAN_POINT('',(0.,-20.,0.));
#906=CARTESIAN_POINT('',(19.1966268916936,-20.,29.2658421368856));
#907=CARTESIAN_POINT('',(19.1966268916936,14.,29.2658421368856));
#908=CARTESIAN_POINT('',(19.1966268916936,-14.,29.2658421368856));
#909=CARTESIAN_POINT('',(0.,-14.,0.));
#910=CARTESIAN_POINT('',(2.86198741055812,-14.,34.8827898549099));
#911=CARTESIAN_POINT('',(2.86198741055812,-20.,34.8827898549099));
#912=CARTESIAN_POINT('',(2.86198741055812,-20.,34.8827898549099));
#913=CARTESIAN_POINT('',(0.,-20.,0.));
#914=CARTESIAN_POINT('',(-3.13801258944188,-20.,34.8590429729289));
#915=CARTESIAN_POINT('',(-3.13801258944188,-20.,34.8590429729289));
#916=CARTESIAN_POINT('',(-3.13801258944188,-14.,34.8590429729289));
#917=CARTESIAN_POINT('',(0.,-14.,0.));
#918=CARTESIAN_POINT('',(-18.8332660611736,-14.,29.5009845508425));
#919=CARTESIAN_POINT('',(-18.8332660611736,-20.,29.5009845508425));
#920=CARTESIAN_POINT('',(-18.8332660611736,14.,29.5009845508425));
#921=CARTESIAN_POINT('',(0.,14.,0.));
#922=CARTESIAN_POINT('',(-3.13801258944188,14.,34.8590429729289));
#923=CARTESIAN_POINT('',(-3.13801258944188,-20.,34.8590429729289));
#924=CARTESIAN_POINT('',(-3.13801258944188,20.,34.8590429729289));
#925=CARTESIAN_POINT('',(0.,20.,0.));
#926=CARTESIAN_POINT('',(-26.1806706778668,20.,23.2286995515695));
#927=CARTESIAN_POINT('',(-26.1806706778668,-20.,23.2286995515695));
#928=CARTESIAN_POINT('',(-26.1806706778668,9.97475439988906,23.2286995515695));
#929=CARTESIAN_POINT('',(0.,9.97475439988906,0.));
#930=CARTESIAN_POINT('',(26.1806706778668,9.97475439988906,23.2286995515695));
#931=CARTESIAN_POINT('',(26.1806706778668,-20.,23.2286995515695));
#932=CARTESIAN_POINT('',(26.1806706778668,20.,23.2286995515695));
#933=CARTESIAN_POINT('',(0.,20.,0.));
#934=CARTESIAN_POINT('',(2.86198741055812,20.,34.8827898549099));
#935=CARTESIAN_POINT('',(2.86198741055812,-20.,34.8827898549099));
#936=CARTESIAN_POINT('',(2.86198741055812,14.,34.8827898549099));
#937=CARTESIAN_POINT('',(0.,14.,0.));
#938=CARTESIAN_POINT('',(0.,-20.,0.));
#939=CARTESIAN_POINT('',(2.86198741055812,-20.,24.8356402788776));
#940=CARTESIAN_POINT('',(2.86198741055812,20.,24.8356402788776));
#941=CARTESIAN_POINT('',(2.86198741055812,-20.,24.8356402788776));
#942=CARTESIAN_POINT('',(0.,20.,0.));
#943=CARTESIAN_POINT('',(-3.13801258944188,20.,24.8022756413299));
#944=CARTESIAN_POINT('',(-3.13801258944188,-20.,24.8022756413299));
#945=CARTESIAN_POINT('',(-3.13801258944188,-20.,24.8022756413299));
#946=CARTESIAN_POINT('',(0.,-20.,0.));
#947=CARTESIAN_POINT('',(0.,-20.,0.));
#948=CARTESIAN_POINT('',(2.86198741055812,-20.,0.));
#949=CARTESIAN_POINT('',(-3.13801258944188,-20.,0.));
#950=CARTESIAN_POINT('',(0.,20.,0.));
#951=CARTESIAN_POINT('',(2.86198741055812,20.,0.));
#952=CARTESIAN_POINT('',(33.3616546352246,20.,29.6));
#953=CARTESIAN_POINT('',(33.3616546352246,20.,20.));
#954=CARTESIAN_POINT('',(50.,20.,20.));
#955=CARTESIAN_POINT('',(50.,20.,20.));
#956=CARTESIAN_POINT('',(50.,20.,0.));
#957=CARTESIAN_POINT('',(64.142135623731,20.,-14.1421356237309));
#958=CARTESIAN_POINT('',(64.142135623731,20.,-14.1421356237309));
#959=CARTESIAN_POINT('',(14.142135623731,20.,-64.142135623731));
#960=CARTESIAN_POINT('',(6.12323399573677E-15,20.,-50.));
#961=CARTESIAN_POINT('',(-14.142135623731,20.,-64.142135623731));
#962=CARTESIAN_POINT('',(-64.142135623731,20.,-14.142135623731));
#963=CARTESIAN_POINT('',(-64.142135623731,20.,-14.142135623731));
#964=CARTESIAN_POINT('',(-50.,20.,0.));
#965=CARTESIAN_POINT('',(-50.,20.,20.));
#966=CARTESIAN_POINT('',(-50.,20.,20.));
#967=CARTESIAN_POINT('',(-33.3616546352246,20.,20.));
#968=CARTESIAN_POINT('',(-33.3616546352246,20.,29.6));
#969=CARTESIAN_POINT('',(-3.13801258944188,20.,0.));
#970=CARTESIAN_POINT('',(6.12323399573677E-15,20.,-50.));
#971=CARTESIAN_POINT('',(10.,20.,-50.));
#972=CARTESIAN_POINT('',(50.,20.,0.));
#973=CARTESIAN_POINT('',(60.,20.,0.));
#974=CARTESIAN_POINT('',(-50.,20.,0.));
#975=CARTESIAN_POINT('',(-40.,20.,0.));
#976=CARTESIAN_POINT('',(14.8619874105581,-14.,52.));
#977=CARTESIAN_POINT('',(2.86198741055812,-14.,52.));
#978=CARTESIAN_POINT('',(2.86198741055812,-14.,52.));
#979=CARTESIAN_POINT('',(24.4619874105581,-14.,37.2930445515742));
#980=CARTESIAN_POINT('',(14.8619874105581,-14.,37.2930445515742));
#981=CARTESIAN_POINT('',(14.8619874105581,-14.,52.));
#982=CARTESIAN_POINT('',(14.8619874105581,-14.,52.));
#983=CARTESIAN_POINT('',(14.8619874105581,-14.,52.));
#984=CARTESIAN_POINT('',(14.8619874105581,-14.,52.));
#985=CARTESIAN_POINT('',(-3.13801258944188,-14.,52.));
#986=CARTESIAN_POINT('',(-3.13801258944188,-14.,52.));
#987=CARTESIAN_POINT('',(14.8619874105581,-14.,52.));
#988=CARTESIAN_POINT('',(-15.1380125894419,-14.,52.));
#989=CARTESIAN_POINT('',(-15.1380125894419,-14.,52.));
#990=CARTESIAN_POINT('',(-15.1380125894419,-14.,36.2440667338922));
#991=CARTESIAN_POINT('',(-23.1380125894419,-14.,36.2440667338922));
#992=CARTESIAN_POINT('',(14.8619874105581,14.,30.));
#993=CARTESIAN_POINT('',(2.86198741055812,14.,30.));
#994=CARTESIAN_POINT('',(2.86198741055812,14.,52.));
#995=CARTESIAN_POINT('',(14.8619874105581,14.,52.));
#996=CARTESIAN_POINT('',(14.8619874105581,14.,52.));
#997=CARTESIAN_POINT('',(14.8619874105581,14.,30.));
#998=CARTESIAN_POINT('',(14.8619874105581,14.,37.2930445515742));
#999=CARTESIAN_POINT('',(24.4619874105581,14.,37.2930445515742));
#1000=CARTESIAN_POINT('',(14.8619874105581,14.,30.));
#1001=CARTESIAN_POINT('',(-3.13801258944188,14.,30.));
#1002=CARTESIAN_POINT('',(-3.13801258944188,14.,52.));
#1003=CARTESIAN_POINT('',(-23.1380125894419,14.,36.2440667338922));
#1004=CARTESIAN_POINT('',(-15.1380125894419,14.,36.2440667338922));
#1005=CARTESIAN_POINT('',(-15.1380125894419,14.,30.));
#1006=CARTESIAN_POINT('',(-15.1380125894419,14.,52.));
#1007=CARTESIAN_POINT('',(14.8619874105581,14.,52.));
#1008=CARTESIAN_POINT('',(19.2337125836444,0.,52.));
#1009=CARTESIAN_POINT('',(19.2337125836444,0.,52.));
#1010=CARTESIAN_POINT('',(19.2337125836444,7.,52.));
#1011=CARTESIAN_POINT('',(2.86198741055812,0.,52.));
#1012=CARTESIAN_POINT('',(2.86198741055812,0.,59.));
#1013=CARTESIAN_POINT('',(19.2337125836444,0.,52.));
#1014=CARTESIAN_POINT('',(-18.7662874163556,0.,52.));
#1015=CARTESIAN_POINT('',(-18.7662874163556,7.,52.));
#1016=CARTESIAN_POINT('',(-3.13801258944188,0.,52.));
#1017=CARTESIAN_POINT('',(-3.13801258944188,0.,45.));
#1018=CARTESIAN_POINT('',(19.2337125836444,0.,52.));
#1019=CARTESIAN_POINT('',(19.2337125836444,0.,52.));
#1020=CARTESIAN_POINT('',(19.2337125836444,14.,52.));
#1021=CARTESIAN_POINT('',(2.86198741055812,0.,52.));
#1022=CARTESIAN_POINT('',(14.8619874105581,-1.73472347597681E-15,52.));
#1023=CARTESIAN_POINT('',(19.2337125836444,0.,52.));
#1024=CARTESIAN_POINT('',(-18.7662874163556,0.,52.));
#1025=CARTESIAN_POINT('',(-18.7662874163556,14.,52.));
#1026=CARTESIAN_POINT('',(-3.13801258944188,0.,52.));
#1027=CARTESIAN_POINT('',(-15.1380125894419,-1.73472347597681E-15,52.));
#1028=CARTESIAN_POINT('',(14.8619874105581,-1.73472347597681E-15,52.));
#1029=CARTESIAN_POINT('',(14.8619874105581,-1.73472347597681E-15,37.2930445515742));
#1030=CARTESIAN_POINT('',(-15.1380125894419,-1.73472347597681E-15,52.));
#1031=CARTESIAN_POINT('',(-15.1380125894419,-14.,36.2440667338922));
#1032=CARTESIAN_POINT('',(19.2337125836444,0.,52.));
#1033=CARTESIAN_POINT('',(-18.7662874163556,0.,52.));
#1034=CARTESIAN_POINT('',(-3.13801258944188,-49.7548467469906,82.));
#1035=CARTESIAN_POINT('',(2.86198741055812,-49.7548467469906,22.));
#1036=CARTESIAN_POINT('',(50.,9.97475439988906,20.));
#1037=CARTESIAN_POINT('',(33.3616546352246,9.97475439988906,20.));
#1038=CARTESIAN_POINT('',(33.3616546352246,9.97475439988906,20.));
#1039=CARTESIAN_POINT('',(50.,9.97475439988906,20.));
#1040=CARTESIAN_POINT('',(50.,9.97475439988906,20.));
#1041=CARTESIAN_POINT('',(50.,9.97475439988906,20.));
#1042=CARTESIAN_POINT('',(50.,9.97475439988906,0.));
#1043=CARTESIAN_POINT('',(50.,9.97475439988906,0.));
#1044=CARTESIAN_POINT('',(64.142135623731,9.97475439988906,-14.1421356237309));
#1045=CARTESIAN_POINT('',(64.142135623731,9.97475439988906,-14.1421356237309));
#1046=CARTESIAN_POINT('',(64.142135623731,9.97475439988906,-14.1421356237309));
#1047=CARTESIAN_POINT('',(64.142135623731,9.97475439988906,-14.1421356237309));
#1048=CARTESIAN_POINT('',(14.142135623731,9.97475439988906,-64.142135623731));
#1049=CARTESIAN_POINT('',(14.142135623731,9.97475439988906,-64.142135623731));
#1050=CARTESIAN_POINT('',(6.12323399573677E-15,9.97475439988906,-50.));
#1051=CARTESIAN_POINT('',(6.12323399573677E-15,9.97475439988906,-50.));
#1052=CARTESIAN_POINT('',(-14.142135623731,9.97475439988906,-64.142135623731));
#1053=CARTESIAN_POINT('',(-14.142135623731,9.97475439988906,-64.142135623731));
#1054=CARTESIAN_POINT('',(-64.142135623731,9.97475439988906,-14.142135623731));
#1055=CARTESIAN_POINT('',(-64.142135623731,9.97475439988906,-14.142135623731));
#1056=CARTESIAN_POINT('',(-64.142135623731,9.97475439988906,-14.142135623731));
#1057=CARTESIAN_POINT('',(-64.142135623731,9.97475439988906,-14.142135623731));
#1058=CARTESIAN_POINT('',(-50.,9.97475439988906,0.));
#1059=CARTESIAN_POINT('',(-50.,9.97475439988906,0.));
#1060=CARTESIAN_POINT('',(-50.,9.97475439988906,20.));
#1061=CARTESIAN_POINT('',(-50.,9.97475439988906,20.));
#1062=CARTESIAN_POINT('',(-50.,9.97475439988906,20.));
#1063=CARTESIAN_POINT('',(-50.,9.97475439988906,20.));
#1064=CARTESIAN_POINT('',(-33.3616546352246,9.97475439988906,20.));
#1065=CARTESIAN_POINT('',(-33.3616546352246,20.,20.));
#1066=CARTESIAN_POINT('',(-50.,9.97475439988906,0.));
#1067=CARTESIAN_POINT('',(-50.,9.97475439988906,0.));
#1068=CARTESIAN_POINT('',(-40.,9.97475439988906,0.));
#1069=CARTESIAN_POINT('',(50.,9.97475439988906,0.));
#1070=CARTESIAN_POINT('',(50.,9.97475439988906,0.));
#1071=CARTESIAN_POINT('',(60.,9.97475439988906,0.));
#1072=CARTESIAN_POINT('',(6.12323399573677E-15,9.97475439988906,-50.));
#1073=CARTESIAN_POINT('',(6.12323399573677E-15,9.97475439988906,-50.));
#1074=CARTESIAN_POINT('',(10.,9.97475439988906,-50.));
#1075=CARTESIAN_POINT('',(50.,9.97475439988906,0.));
#1076=CARTESIAN_POINT('',(33.3616546352246,9.97475439988906,29.6));
#1077=CARTESIAN_POINT('',(-33.3616546352246,9.97475439988906,29.6));
#1078=CARTESIAN_POINT('',(-23.1380125894419,-20.,36.2440667338922));
#1079=CARTESIAN_POINT('',(24.4619874105581,-20.,37.2930445515742));
#1080=CARTESIAN_POINT('',(33.3616546352246,-20.,29.6));
#1081=CARTESIAN_POINT('',(-33.3616546352246,-20.,29.6));
#1082=MECHANICAL_DESIGN_GEOMETRIC_PRESENTATION_REPRESENTATION('',(#627),
#1083);
#1083=(
GEOMETRIC_REPRESENTATION_CONTEXT(3)
GLOBAL_UNCERTAINTY_ASSIGNED_CONTEXT((#1084))
GLOBAL_UNIT_ASSIGNED_CONTEXT((#1087,#1086,#1085))
REPRESENTATION_CONTEXT('Esercizio 1','TOP_LEVEL_ASSEMBLY_PART')
);
#1084=UNCERTAINTY_MEASURE_WITH_UNIT(LENGTH_MEASURE(1.E-5),#1087,
'DISTANCE_ACCURACY_VALUE','Maximum Tolerance applied to model');
#1085=(
NAMED_UNIT(*)
SI_UNIT($,.STERADIAN.)
SOLID_ANGLE_UNIT()
);
#1086=(
NAMED_UNIT(*)
PLANE_ANGLE_UNIT()
SI_UNIT($,.RADIAN.)
);
#1087=(
LENGTH_UNIT()
NAMED_UNIT(*)
SI_UNIT(.MILLI.,.METRE.)
);
#1088=PRODUCT_DEFINITION_SHAPE('','',#1089);
#1089=PRODUCT_DEFINITION('','',#1091,#1090);
#1090=PRODUCT_DEFINITION_CONTEXT('',#1097,'design');
#1091=PRODUCT_DEFINITION_FORMATION_WITH_SPECIFIED_SOURCE('','',#1093,
 .NOT_KNOWN.);
#1092=PRODUCT_RELATED_PRODUCT_CATEGORY('','',(#1093));
#1093=PRODUCT('Esercizio 1','Esercizio 1','Esercizio 1',(#1095));
#1094=PRODUCT_CATEGORY('','');
#1095=PRODUCT_CONTEXT('',#1097,'mechanical');
#1096=APPLICATION_PROTOCOL_DEFINITION('international standard',
'automotive_design',2010,#1097);
#1097=APPLICATION_CONTEXT(
'core data for automotive mechanical design processes');
ENDSEC;
END-ISO-10303-21;
